# xmcd
#
# Track frame offsets: 
#        150
#        83475
#        156300
#        183230
#        236250
#        278637
#        296800
#        320750
#
# Disc length: 4728 seconds
#
# Revision: 0
# Processed by: cddbd v1.5.2PL0 Copyright (c) Steve Scherf et al.
# Submitted via: ExactAudioCopy v1.0b1
#
DISCID=67127608
DTITLE=Jochum - Beethoven Symphony No.3 and 8 ,CD2
DYEAR=2005
DGENRE=Classical
TTITLE0=Sym No.3 in E flat, Op.55 'Eroica': 1. Allegro Con Brio
TTITLE1=Sym No.3 in E flat, Op.55 'Eroica': 2. Marcia Funebre. Adagio 
TTITLE1=Assai
TTITLE2=Sym No.3 in E flat, Op.55 'Eroica': 3. Scherzo. Allegro Vivace
TTITLE2=Trio
TTITLE3=Sym No.3 in E flat, Op.55 'Eroica': 4. Finale. Allegro Molto -
TTITLE3=Poco Andante - Presto
TTITLE4=Sym No.8 in F, Op.93: 1. Allegro Vivace E Con Brio
TTITLE5=Sym No.8 in F, Op.93: 2. Allegretto Scherzando
TTITLE6=Sym No.8 in F, Op.93: 3. Tempo Di Menuetto
TTITLE7=Sym No.8 in F, Op.93: 3. Tempo Di Menuetto
EXTD=
EXTT0=
EXTT1=
EXTT2=
EXTT3=
EXTT4=
EXTT5=
EXTT6=
EXTT7=
PLAYORDER=
